<svg xmlns="http://www.w3.org/2000/svg" viewBox="0 0 200 200" width="200" height="200">
  <!-- Cat Head -->
  <circle cx="100" cy="100" r="70" fill="#FF8C42" opacity="0.9"/>
  
  <!-- Left Ear -->
  <path d="M 60 50 L 40 20 L 70 60 Z" fill="#FF8C42"/>
  <path d="M 60 50 L 45 30 L 65 58 Z" fill="#FFB380"/>
  
  <!-- Right Ear -->
  <path d="M 140 50 L 160 20 L 130 60 Z" fill="#FF8C42"/>
  <path d="M 140 50 L 155 30 L 135 58 Z" fill="#FFB380"/>
  
  <!-- Left Eye -->
  <ellipse cx="80" cy="90" rx="12" ry="18" fill="#2C3E50"/>
  <ellipse cx="82" cy="88" rx="6" ry="10" fill="#3498DB"/>
  <ellipse cx="84" cy="86" rx="3" ry="5" fill="white"/>
  
  <!-- Right Eye -->
  <ellipse cx="120" cy="90" rx="12" ry="18" fill="#2C3E50"/>
  <ellipse cx="122" cy="88" rx="6" ry="10" fill="#3498DB"/>
  <ellipse cx="124" cy="86" rx="3" ry="5" fill="white"/>
  
  <!-- Nose -->
  <path d="M 100 105 L 95 115 L 105 115 Z" fill="#FF6B9D"/>
  
  <!-- Mouth -->
  <path d="M 100 115 Q 90 125 85 120" stroke="#2C3E50" stroke-width="2" fill="none" stroke-linecap="round"/>
  <path d="M 100 115 Q 110 125 115 120" stroke="#2C3E50" stroke-width="2" fill="none" stroke-linecap="round"/>
  
  <!-- Whiskers Left -->
  <line x1="50" y1="100" x2="70" y2="98" stroke="#2C3E50" stroke-width="1.5" opacity="0.6"/>
  <line x1="50" y1="110" x2="70" y2="108" stroke="#2C3E50" stroke-width="1.5" opacity="0.6"/>
  
  <!-- Whiskers Right -->
  <line x1="150" y1="100" x2="130" y2="98" stroke="#2C3E50" stroke-width="1.5" opacity="0.6"/>
  <line x1="150" y1="110" x2="130" y2="108" stroke="#2C3E50" stroke-width="1.5" opacity="0.6"/>
  
  <!-- Shine effect -->
  <circle cx="70" cy="70" r="15" fill="white" opacity="0.3"/>
</svg>